%TF.GenerationSoftware,KiCad,Pcbnew,7.0.6*%
%TF.CreationDate,2025-06-23T03:35:23-07:00*%
%TF.ProjectId,LED Project,4c454420-5072-46f6-9a65-63742e6b6963,rev?*%
%TF.SameCoordinates,Original*%
%TF.FileFunction,Legend,Top*%
%TF.FilePolarity,Positive*%
%FSLAX46Y46*%
G04 Gerber Fmt 4.6, Leading zero omitted, Abs format (unit mm)*
G04 Created by KiCad (PCBNEW 7.0.6) date 2025-06-23 03:35:23*
%MOMM*%
%LPD*%
G01*
G04 APERTURE LIST*
%ADD10C,0.150000*%
%ADD11C,0.100000*%
%ADD12C,0.120000*%
G04 APERTURE END LIST*
D10*
X106244819Y-88279166D02*
X105768628Y-88612499D01*
X106244819Y-88850594D02*
X105244819Y-88850594D01*
X105244819Y-88850594D02*
X105244819Y-88469642D01*
X105244819Y-88469642D02*
X105292438Y-88374404D01*
X105292438Y-88374404D02*
X105340057Y-88326785D01*
X105340057Y-88326785D02*
X105435295Y-88279166D01*
X105435295Y-88279166D02*
X105578152Y-88279166D01*
X105578152Y-88279166D02*
X105673390Y-88326785D01*
X105673390Y-88326785D02*
X105721009Y-88374404D01*
X105721009Y-88374404D02*
X105768628Y-88469642D01*
X105768628Y-88469642D02*
X105768628Y-88850594D01*
X106244819Y-87326785D02*
X106244819Y-87898213D01*
X106244819Y-87612499D02*
X105244819Y-87612499D01*
X105244819Y-87612499D02*
X105387676Y-87707737D01*
X105387676Y-87707737D02*
X105482914Y-87802975D01*
X105482914Y-87802975D02*
X105530533Y-87898213D01*
D11*
X102057419Y-103238094D02*
X101057419Y-103238094D01*
X101057419Y-103238094D02*
X101057419Y-102999999D01*
X101057419Y-102999999D02*
X101105038Y-102857142D01*
X101105038Y-102857142D02*
X101200276Y-102761904D01*
X101200276Y-102761904D02*
X101295514Y-102714285D01*
X101295514Y-102714285D02*
X101485990Y-102666666D01*
X101485990Y-102666666D02*
X101628847Y-102666666D01*
X101628847Y-102666666D02*
X101819323Y-102714285D01*
X101819323Y-102714285D02*
X101914561Y-102761904D01*
X101914561Y-102761904D02*
X102009800Y-102857142D01*
X102009800Y-102857142D02*
X102057419Y-102999999D01*
X102057419Y-102999999D02*
X102057419Y-103238094D01*
X102057419Y-101714285D02*
X102057419Y-102285713D01*
X102057419Y-101999999D02*
X101057419Y-101999999D01*
X101057419Y-101999999D02*
X101200276Y-102095237D01*
X101200276Y-102095237D02*
X101295514Y-102190475D01*
X101295514Y-102190475D02*
X101343133Y-102285713D01*
D10*
X118574819Y-96103333D02*
X119289104Y-96103333D01*
X119289104Y-96103333D02*
X119431961Y-96150952D01*
X119431961Y-96150952D02*
X119527200Y-96246190D01*
X119527200Y-96246190D02*
X119574819Y-96389047D01*
X119574819Y-96389047D02*
X119574819Y-96484285D01*
X119574819Y-95103333D02*
X119574819Y-95674761D01*
X119574819Y-95389047D02*
X118574819Y-95389047D01*
X118574819Y-95389047D02*
X118717676Y-95484285D01*
X118717676Y-95484285D02*
X118812914Y-95579523D01*
X118812914Y-95579523D02*
X118860533Y-95674761D01*
D12*
%TO.C,R1*%
X104875000Y-87885436D02*
X104875000Y-88339564D01*
X103405000Y-87885436D02*
X103405000Y-88339564D01*
D11*
%TO.C,D1*%
X102870000Y-104786000D02*
X105156000Y-104786000D01*
X102870000Y-104786000D02*
X102870000Y-100214000D01*
X102870000Y-100214000D02*
X105156000Y-100214000D01*
X105156000Y-100214000D02*
X105156000Y-104786000D01*
X105154000Y-105900000D02*
X102868000Y-105900000D01*
X102868000Y-104884000D01*
X105154000Y-104884000D01*
X105154000Y-105900000D01*
G36*
X105154000Y-105900000D02*
G01*
X102868000Y-105900000D01*
X102868000Y-104884000D01*
X105154000Y-104884000D01*
X105154000Y-105900000D01*
G37*
D12*
%TO.C,J1*%
X117000000Y-92830000D02*
X113000000Y-92830000D01*
X118030000Y-93120000D02*
X112010000Y-93120000D01*
X112010000Y-93120000D02*
X112010000Y-98420000D01*
X118030000Y-93700000D02*
X117430000Y-93700000D01*
X117430000Y-93700000D02*
X117430000Y-95300000D01*
X113010000Y-94500000D02*
X113540000Y-94750000D01*
X113010000Y-94500000D02*
X113010000Y-97040000D01*
X112010000Y-94500000D02*
X113010000Y-94500000D01*
X113540000Y-94750000D02*
X113540000Y-96790000D01*
X112010000Y-94750000D02*
X113010000Y-94750000D01*
X117430000Y-95300000D02*
X118030000Y-95300000D01*
X118030000Y-96240000D02*
X117430000Y-96240000D01*
X117430000Y-96240000D02*
X117430000Y-97840000D01*
X113540000Y-96790000D02*
X113010000Y-97040000D01*
X112010000Y-96790000D02*
X113010000Y-96790000D01*
X113010000Y-97040000D02*
X112010000Y-97040000D01*
X117430000Y-97840000D02*
X118030000Y-97840000D01*
X118030000Y-98420000D02*
X118030000Y-93120000D01*
X112010000Y-98420000D02*
X118030000Y-98420000D01*
%TD*%
M02*
